<svg width="32" height="28" viewBox="0 0 32 28" fill="none" xmlns="http://www.w3.org/2000/svg">
<path fill-rule="evenodd" clip-rule="evenodd" d="M4 4C1.79086 4 0 5.79086 0 8V24C0 26.2091 1.79086 28 4 28H28C30.2091 28 32 26.2091 32 24V8C32 5.79086 30.2091 4 28 4H24.8284C24.298 4 23.7893 3.78929 23.4142 3.41421L21.1716 1.17157C20.4214 0.421428 19.404 0 18.3431 0H13.6569C12.596 0 11.5786 0.421426 10.8284 1.17157L8.58579 3.41421C8.21071 3.78929 7.70201 4 7.17157 4H4ZM16 22C19.3137 22 22 19.3137 22 16C22 12.6863 19.3137 10 16 10C12.6863 10 10 12.6863 10 16C10 19.3137 12.6863 22 16 22Z" fill="#111827"/>
</svg>
